<?xml version="1.0" encoding="UTF-8"?>
<svg width="1200pt" height="1200pt" version="1.1" viewBox="0 0 1200 1200" xmlns="http://www.w3.org/2000/svg">
 <g fill="#ff0036">
  <path d="m932.4 585.6v-217.2c0-10.801-1.1992-21.602-4.8008-32.398l26.398-3.6016c15.602-2.3984 27.602-15.602 27.602-31.199v-40.801c0-18-14.398-32.398-32.398-32.398h-48l-24-102c-13.199-56.398-62.398-96-121.2-96l-312-0.007812c-57.602 0-108 39.602-121.2 96l-24 102h-48c-18 0-32.398 14.398-32.398 32.398v40.801c0 15.602 12 28.801 27.602 31.199l26.398 3.6016c-3.6016 9.6016-4.8008 20.398-4.8008 32.398v217.2c0 18 14.398 32.398 32.398 32.398h99.602c15.602 0 28.801-10.801 31.199-26.398l14.398-72h312l14.398 72c2.3984 15.602 15.602 26.398 31.199 26.398l97.203 0.007812c18 0 32.398-14.398 32.398-32.398zm-537.6-442.8c4.8008-22.801 25.199-39.602 49.199-39.602h312c24 0 44.398 15.602 49.199 39.602l27.602 117.6-465.6-0.003906zm46.801 286.8-103.2-4.8008c-8.3984 0-15.602-7.1992-15.602-15.602 0-13.199-1.1992-33.598 1.1992-49.199 1.1992-9.6016 10.801-16.801 21.602-13.199 31.199 8.3984 75.602 20.398 94.801 25.199 6 1.1992 10.801 6 12 12l6 25.199c3.5977 9.6016-4.8008 20.402-16.801 20.402zm240-18c0 6-4.8008 9.6016-9.6016 9.6016l-144-0.003906c-6 0-9.6016-4.8008-9.6016-9.6016v-19.199c0-6 4.8008-9.6016 9.6016-9.6016l144 0.003906c6 0 9.6016 4.8008 9.6016 9.6016zm195.6-2.4023c0 8.3984-7.1992 15.602-15.602 15.602l-103.2 4.8008c-10.801 0-19.199-9.6016-16.801-20.398l6-25.199c1.1992-6 6-10.801 12-12 19.199-4.8008 63.602-16.801 94.801-25.199 9.6016-2.3984 19.199 3.6016 21.602 13.199 2.3984 15.598 1.1992 35.996 1.1992 49.195z"/>
  <path d="m348 690h-73.199c-8.3984 0-15.602 6-18 14.398l-111.6 442.8c-2.3984 12 6 22.801 18 22.801h73.199c8.3984 0 15.602-6 18-14.398l111.6-442.8c3.6016-10.801-6-22.801-18-22.801z"/>
  <path d="m1054.8 1147.2-111.6-442.8c-2.3984-8.3984-9.6016-14.398-18-14.398h-73.199c-12 0-20.398 10.801-18 22.801l111.6 442.8c2.3984 8.3984 9.6016 14.398 18 14.398h73.199c12 0 21.598-10.801 18-22.801z"/>
  <path d="m633.6 1036.8h-70.801c-10.801 0-18 8.3984-18 18v96c0 10.801 8.3984 18 18 18h70.801c10.801 0 18-8.3984 18-18v-96c0-9.6016-7.2031-18-18-18z"/>
  <path d="m633.6 823.2h-70.801c-10.801 0-18 8.3984-18 18v96c0 10.801 8.3984 18 18 18h70.801c10.801 0 18-8.3984 18-18v-96c0-9.5977-7.2031-18-18-18z"/>
  <path d="m633.6 609.6h-70.801c-10.801 0-18 8.3984-18 18v96c0 10.801 8.3984 18 18 18h70.801c10.801 0 18-8.3984 18-18v-96c0-9.6016-7.2031-18-18-18z"/>
 </g>
</svg>
