<?xml version="1.0" encoding="UTF-8"?>
<svg width="218px" height="200px" viewBox="0 0 218 200" version="1.1" xmlns="http://www.w3.org/2000/svg" xmlns:xlink="http://www.w3.org/1999/xlink">
    <title>ic_ReviewAwards-Red</title>
    <g id="ic_ReviewAwards-Red" stroke="none" stroke-width="1" fill="none" fill-rule="evenodd">
        <g id="noun-badge-4422734-FF0037" transform="translate(39.917066, 0.000000)" fill="#FF0036" fill-rule="nonzero">
            <path d="M101.417005,140.319231 C98.9765652,140.319231 96.5574392,139.765769 94.2302075,138.675931 L86.8045896,135.200195 L82.1129142,141.925599 C78.9722608,146.424925 74.2259031,149.007225 69.0859373,149.007225 C63.9499897,149.007225 59.203632,146.424227 56.0629786,141.925599 L51.3713032,135.200195 L43.9456853,138.680648 C41.6144354,139.770503 39.1953094,140.323948 36.7548695,140.323948 C35.0945004,140.323948 33.5343764,140.009341 32.0500914,139.531631 L32.0500914,197.963123 C32.0500914,199.950381 33.3453641,200.591894 34.9306106,199.396919 L66.2008758,175.752482 C67.7854933,174.553437 70.381542,174.553437 71.9661071,175.752482 L103.236372,199.396919 C104.82099,200.595965 106.121084,199.950381 106.121084,197.963123 L106.121084,139.526389 C104.636782,140.0041 103.076693,140.318707 101.416306,140.318707 L101.417005,140.319231 Z" id="Path"></path>
            <path d="M135.723625,64.9466934 L127.438115,59.1643411 C124.180235,56.8917917 122.893016,52.0867335 124.578734,48.4848616 L128.859681,39.3443494 C130.545295,35.7464956 128.683614,32.5226831 124.725486,32.1828839 L114.66638,31.3155135 C110.704094,30.9715563 107.186255,27.4583991 106.846281,23.495414 L105.982998,13.4410253 C105.643147,9.47873909 102.423405,7.62128638 98.8215329,9.30263748 L89.6768278,13.5835838 C86.078974,15.2691977 81.2739158,13.9821185 78.9973483,10.7200109 L73.2198877,2.44340985 C70.9473383,-0.81446995 67.2240471,-0.81446995 64.9514977,2.44340985 L59.1740372,10.7200109 C56.9014878,13.9778907 52.0964296,15.2651096 48.4945576,13.5835838 L39.3498525,9.30263748 C35.7479806,7.61702361 32.5281863,9.47870415 32.188387,13.4368324 L31.3244234,23.4952393 C30.9845718,27.4582244 27.467309,30.9760637 23.5050228,31.3153388 L13.4417241,32.1793024 C9.4836308,32.5191541 7.6219852,35.7429142 9.30752919,39.3407679 L13.5924937,48.4894912 C15.2781076,52.087345 13.9910284,56.8964214 10.7289208,59.1689707 L2.44340985,64.9424131 C-0.81446995,67.2149625 -0.81446995,70.9382537 2.44340985,73.214996 L10.7289208,78.9924565 C13.9868006,81.2650059 15.2740195,86.0700641 13.5924937,89.6719361 L9.31154738,98.8206593 C7.62593351,102.418513 9.48352248,105.638133 13.4417241,105.982125 L23.5050228,106.846088 C27.467309,107.18594 30.9851483,110.703203 31.3202305,114.661296 L32.1841941,124.724595 C32.5240458,128.682688 35.7478059,130.544334 39.3456596,128.85879 L48.4903647,124.573825 C52.0882185,122.8923 56.8932767,124.179379 59.1698443,127.437398 L64.9473048,135.722909 C67.2198542,138.980789 70.9431454,138.980789 73.2156948,135.722909 L78.9931554,127.437398 C81.2697229,124.179518 86.0747811,122.8923 89.6726349,124.573825 L98.81734,128.854772 C102.419212,130.540385 105.639006,128.678705 105.978805,124.720577 L106.842769,114.66217 C107.182621,110.704076 110.699884,107.182044 114.662869,106.846962 L124.721275,105.978893 C128.683562,105.639041 130.541014,102.415281 128.859663,98.8174273 L124.578717,89.6687041 C122.893103,86.0708503 124.180182,81.2617739 127.438097,78.9892245 L135.718716,73.2157821 C138.980789,70.9425339 138.980789,67.2192427 135.723493,64.9466934 L135.723625,64.9466934 Z M69.0862867,110.637025 C46.138919,110.637025 27.5346923,92.0293042 27.5346923,69.0854306 C27.5346923,46.1328219 46.138919,27.5303422 69.0862867,27.5303422 C92.0388955,27.5303422 110.637881,46.138063 110.637881,69.0854306 C110.637881,92.0293042 92.0336543,110.637025 69.0862867,110.637025 Z" id="Shape"></path>
            <path d="M82.5961454,57.0518206 C80.629328,56.7665639 78.3029698,55.0767921 77.4219377,53.2949862 L70.684304,39.6469367 C69.8080587,37.8651308 68.3654581,37.8651308 67.4891429,39.6469367 L60.7515093,53.2949862 C59.875264,55.0767921 57.5441189,56.7707219 55.5813197,57.0518206 L40.5165956,59.2403373 C38.5497782,59.525594 38.105506,60.8966184 39.5311603,62.2847289 L50.428321,72.909526 C51.8498349,74.2976016 52.7384317,77.0355099 52.4073677,78.9934174 L49.8332793,93.9954228 C49.4975157,95.9533303 50.6638045,96.8002952 52.4244887,95.8782076 L65.8924184,88.7965818 C67.6490669,87.8698296 70.5295862,87.8698296 72.2909517,88.7965818 L85.7588814,95.8782076 C87.5195481,96.8008542 88.6811549,95.9580525 88.3500908,93.9954228 L85.7760024,78.9934174 C85.4402388,77.0355099 86.3294646,74.2975492 87.7550491,72.909526 L98.6522098,62.2847289 C100.073724,60.8966533 99.633557,59.5296471 97.6667745,59.2403373 L82.5961454,57.0518206 Z" id="Path"></path>
        </g>
    </g>
</svg>