<?xml version="1.0" encoding="UTF-8"?>
<svg width="1200pt" height="1200pt" version="1.1" viewBox="0 0 1200 1200" xmlns="http://www.w3.org/2000/svg">
 <g fill="#ff0036">
  <path d="m172.36 689.66 67.883 67.883-57.512 57.512-67.883-67.883z"/>
  <path d="m1034.7 585.33c69.332-74.668 65.332-194.67-8-265.33l-106.67-101.33c-74.668-70.668-192-69.332-265.33 4l-32 34.668 66.668 66.668 32-34.668c36-36 94.668-36 130.67-1.332l108 101.33c36 34.668 38.668 94.668 4 130.67l-156 169.33c-88 100-84 252 12 344l66.668-69.332c-58.668-57.332-61.336-149.33-6.668-210.67z"/>
  <path d="m489.33 864 301.33-301.33 1.332 1.332c12 12 32 12 44 0s12-32 0-44l-290.66-292c-12-12-32-12-44 0s-12 32 0 44l5.332 5.332-301.33 302.67-5.332-5.332c-12-12-32-12-44 0s-12 32 0 44l292 292c12 12 32 12 44 0 9.332-13.336 9.332-33.336-2.668-46.668zm-48-65.332-48-48 280-280 48 48z"/>
 </g>
</svg>
