<?xml version="1.0" encoding="UTF-8"?>
<svg width="218px" height="200px" viewBox="0 0 218 200" version="1.1" xmlns="http://www.w3.org/2000/svg" xmlns:xlink="http://www.w3.org/1999/xlink">
    <title>ic_Privacy-Red</title>
    <g id="ic_Privacy-Red" stroke="none" stroke-width="1" fill="none" fill-rule="evenodd">
        <g id="noun-privacy-3895624-FF0037" transform="translate(38.999542, 0.000000)" fill="#FF0036" fill-rule="nonzero">
            <path d="M130.001712,60.0006555 L120.001703,60.0006555 L120.001703,50.0006463 C120.001703,36.739634 114.733698,24.0226222 105.357089,14.6446135 C95.9804805,5.26800487 83.2630688,2.5579549e-14 70.0010565,2.5579549e-14 C56.7390443,2.5579549e-14 44.0230325,5.26800487 34.6450238,14.6446135 C25.2684151,24.0212222 20.0004103,36.738634 20.0004103,50.0006463 L20.0004103,60.0006555 L10.000401,60.0006555 C7.34799856,60.0006555 4.80439621,61.0545565 2.92939448,62.9296582 C1.05439274,64.8047599 0.000193979577,67.3484623 0.000193979577,70.0006648 L0.000193979577,147.600737 C-0.0199202505,153.187542 1.52461318,158.667947 4.45819589,163.421751 C7.39179861,168.175756 11.5980025,172.013959 16.6004071,174.500761 L65.5004524,198.900784 C68.321455,200.366405 71.6794581,200.366405 74.5004607,198.900784 L123.400506,174.500761 C128.402911,172.013959 132.609114,168.175756 135.542717,163.421751 C138.47632,158.667747 140.020921,153.187342 140.000721,147.600737 L140.000721,70.0006648 C140.000721,67.3482623 138.94662,64.8046599 137.071519,62.9296582 C135.196417,61.0546565 132.652714,60.0006555 130.000512,60.0006555 L130.001712,60.0006555 Z M80.0016658,130.00072 C80.0016658,133.573324 78.095424,136.874927 75.0016611,138.660928 C71.9078583,140.44765 68.0954548,140.44765 65.0016473,138.660928 C61.907849,136.874987 60.0016473,133.573324 60.0016473,130.00072 L60.0016473,110.000702 C60.0016473,106.428098 61.907889,103.126495 65.0016473,101.340494 C68.0954548,99.5537721 71.9078583,99.5537721 75.0016611,101.340494 C78.095464,103.126435 80.0016658,106.428098 80.0016658,110.000702 L80.0016658,130.00072 Z M100.001684,60.0006555 L40.0016288,60.0006555 L40.0016288,50.0006463 C40.0016288,39.2826363 45.7196341,29.3786272 55.0016426,24.0206222 C64.2836512,18.6612173 75.7196618,18.6612173 85.0016704,24.0206222 C94.283679,29.3792272 100.001684,39.2830363 100.001684,50.0006463 L100.001684,60.0006555 Z" id="Shape"></path>
        </g>
    </g>
</svg>