<?xml version="1.0" encoding="UTF-8"?>
<svg width="218px" height="200px" viewBox="0 0 218 200" version="1.1" xmlns="http://www.w3.org/2000/svg" xmlns:xlink="http://www.w3.org/1999/xlink">
    <title>ic_Maintenance-Red</title>
    <g id="ic_Maintenance-Red" stroke="none" stroke-width="1" fill="none" fill-rule="evenodd">
        <g id="noun-wrenches-1084136-FF0037" transform="translate(8.998649, 0.000000)" fill="#FF0036" fill-rule="nonzero">
            <path d="M74.8615884,157.958456 L157.966163,74.8563039 C169.004296,76.1736264 180.526234,72.6030344 189.002886,64.1285143 C200.558742,52.5697516 203.009749,35.3618256 196.355181,21.4024472 L170.548985,47.2037975 L152.800079,29.4464118 L178.596584,3.64506147 C164.644473,-3.00393441 147.429037,-0.555834449 135.875362,10.9973561 C127.392169,19.4776422 123.831098,30.9986114 125.150237,42.0461924 L42.0529305,125.141077 C31.0024423,123.818085 19.4814731,127.388653 11.0040942,135.866201 C-3.66803141,150.538327 -3.66803141,174.325961 11.0040942,188.992756 C25.6762199,203.667789 49.4638536,203.667789 64.1282267,188.992756 C72.6140849,180.522888 76.175398,169.004826 74.8635266,157.960879 L74.8615884,157.958456 Z M32.6903109,180.652016 L19.3523452,167.31405 L24.2308597,149.091998 L42.452912,144.205004 L55.7908777,157.542969 L50.9123632,175.770594 L32.6903109,180.652016 Z" id="Shape"></path>
            <path d="M74.8615884,157.958456 L157.966163,74.8563039 C169.004296,76.1736264 180.526234,72.6030344 189.002886,64.1285143 C200.558742,52.5697516 203.009749,35.3618256 196.355181,21.4024472 L170.548985,47.2037975 L152.800079,29.4464118 L178.596584,3.64506147 C164.644473,-3.00393441 147.429037,-0.555834449 135.875362,10.9973561 C127.392169,19.4776422 123.831098,30.9986114 125.150237,42.0461924 L42.0529305,125.141077 C31.0024423,123.818085 19.4814731,127.388653 11.0040942,135.866201 C-3.66803141,150.538327 -3.66803141,174.325961 11.0040942,188.992756 C25.6762199,203.667789 49.4638536,203.667789 64.1282267,188.992756 C72.6140849,180.522888 76.175398,169.004826 74.8635266,157.960879 L74.8615884,157.958456 Z M32.6903109,180.652016 L19.3523452,167.31405 L24.2308597,149.091998 L42.452912,144.205004 L55.7908777,157.542969 L50.9123632,175.770594 L32.6903109,180.652016 Z" id="Shape"></path>
            <path d="M74.8567431,42.0461924 C76.1740656,30.9983691 72.6091669,19.474735 64.1260463,10.9973561 C52.5701908,-0.558499377 35.3593576,-3.00393441 21.4048245,3.64506147 L47.2061748,29.4464118 L29.4458819,47.2037975 L3.64937691,21.4024472 C-3.00543335,35.363037 -0.551519006,52.5699939 11.0016716,64.1285143 C19.4734783,72.602986 30.9886331,76.1727785 42.0383945,74.8563039 L61.6268282,94.4391654 L94.434517,61.6290539 L74.8567431,42.0461924 Z" id="Path"></path>
            <path d="M157.951627,125.141077 L138.377245,105.572509 L105.569556,138.38262 L125.141031,157.957002 C123.823709,169.004826 127.388607,180.522888 135.871728,188.993725 C150.538281,203.668758 174.324219,203.668758 188.99586,188.993725 C203.667986,174.324265 203.667986,150.538811 188.99586,135.86717 C180.52042,127.388822 168.993878,123.816365 157.951869,125.139381 L157.951627,125.141077 Z M167.313035,180.653954 L149.090983,175.772774 L144.206897,157.54515 L157.544862,144.207184 L175.772487,149.094178 L180.651001,167.31623 L167.313035,180.653954 Z" id="Shape"></path>
        </g>
    </g>
</svg>