<?xml version="1.0" encoding="UTF-8"?>
<svg width="218px" height="200px" viewBox="0 0 218 200" version="1.1" xmlns="http://www.w3.org/2000/svg" xmlns:xlink="http://www.w3.org/1999/xlink">
    <title>ic_Return-Red 2</title>
    <g id="ic_Return-Red-2" stroke="none" stroke-width="1" fill="none" fill-rule="evenodd">
        <g id="noun-return-3918377-FF0037" transform="translate(0.000000, -0.000000)" fill="#FF0036" fill-rule="nonzero">
            <path d="M117.707143,47.7368462 C117.936492,47.507497 118.395956,47.507497 118.625305,47.7368462 L156.722675,65.1788244 C157.640837,65.6375229 157.640837,66.785034 156.722675,67.0151482 L118.625305,84.4571264 C118.395956,84.6864757 117.936492,84.6864757 117.707143,84.4571264 L79.6097732,67.0151482 C78.6916112,66.5564498 78.6916112,65.4089386 79.6097732,65.1788244 L117.707143,47.7368462 Z" id="Path"></path>
            <path d="M164.984603,76.8836294 C165.673415,76.6542801 166.361463,77.1129786 166.361463,77.8017913 L166.361463,132.423322 C166.361463,132.88202 166.132114,133.112135 165.67265,133.341484 L125.739262,151.701662 C125.05045,151.931011 124.362402,151.472313 124.362402,150.7835 L124.362402,96.1619696 C124.362402,95.7032712 124.591751,95.4731569 125.051215,95.2438077 L164.984603,76.8836294 Z" id="Path"></path>
            <path d="M111.969588,96.1618166 L111.969588,150.783347 C111.969588,151.47216 111.280775,152.160208 110.592727,151.701509 L70.6593392,133.341331 C70.2006408,133.111982 69.9705265,132.882632 69.9705265,132.423169 L69.9705265,77.8016383 C69.9705265,77.1128256 70.6593392,76.4247779 71.3473869,76.8834764 L111.280775,95.2436547 C111.739473,95.4730039 111.969588,95.703099 111.969588,96.1618166 L111.969588,96.1618166 Z" id="Path"></path>
            <path d="M0.661388739,94.3257988 C1.57955066,92.489475 3.64530023,91.3418873 5.71005528,91.3418873 L19.0215671,91.3418873 C23.1522247,40.1628901 66.0695241,0 118.16653,0 C173.247065,0 218,44.7529347 218,99.8334698 C218,146.19292 185.181181,187.273819 139.969242,197.142415 C139.510544,197.371764 138.821731,197.371764 138.363032,197.371764 C134.920499,197.371764 131.707276,194.847431 131.019344,191.404898 C130.101182,187.273475 132.625553,183.143009 136.756899,182.224808 C175.083772,173.733608 202.853541,139.078389 202.853541,99.6040058 C202.853541,53.0150532 164.985674,15.1471854 118.396721,15.1471854 C74.5617951,15.1471854 38.5299451,48.6545109 34.398905,91.3419256 L46.7922166,91.3419256 C48.8579279,91.3419256 50.9236392,92.4894367 51.8408832,94.325837 C52.7590451,96.1621609 52.7590451,98.4572597 51.3821847,100.292704 L30.9564863,129.668989 C29.8089751,131.275199 28.202842,132.193322 26.3664417,132.193322 C24.5301179,132.193322 22.6945973,131.27516 21.7763971,129.668989 L0.891694226,100.292704 C-0.255816921,98.4563799 -0.255816921,96.1612811 0.662344998,94.325072 L0.661388739,94.3257988 Z" id="Path"></path>
            <path d="M103.937009,182.913659 C104.625822,183.143009 105.543219,183.143009 106.232032,183.372358 C108.527054,183.601707 110.822076,183.831056 113.117099,184.06117 C117.248521,184.29052 120.460787,187.962326 120.231477,192.093749 C120.002127,196.225171 116.559632,199.208126 112.65752,199.208126 L112.198822,199.208126 C109.445178,198.978777 106.690577,198.749428 104.166244,198.289964 C103.248082,198.060615 102.32992,198.060615 101.4126,197.831266 C97.2811771,197.142453 94.5275328,193.01191 95.216422,188.880488 C95.9044888,184.749065 99.5763906,182.224732 103.937124,182.913621 L103.937009,182.913659 Z" id="Path"></path>
            <path d="M49.7744833,149.176832 C51.6108072,151.701165 53.6756387,154.225498 55.74135,156.52052 C58.4949943,159.733743 58.2656833,164.553098 55.2826516,167.306743 C53.9057912,168.683603 52.0694291,169.372454 50.233985,169.372454 C48.1682737,169.372454 46.1025624,168.454292 44.4964293,166.848121 C41.972096,164.094477 39.6770737,161.339876 37.6113624,158.356921 C35.0870292,154.914387 36.0051528,150.095032 39.217572,147.80001 C42.6601055,145.046365 47.2501501,145.963686 49.7744833,149.17687 L49.7744833,149.176832 Z" id="Path"></path>
            <path d="M73.413213,171.438548 C75.9375462,173.044757 78.6921467,174.65177 81.675102,176.028592 C85.5762574,177.864916 86.9540357,182.455037 85.3469464,186.126882 C83.970086,188.880526 81.2155238,190.487615 78.4618795,190.487615 C77.3143684,190.487615 76.1668572,190.258266 75.248657,189.798803 C72.0354346,188.192593 68.8222121,186.356269 65.6099459,184.519869 C61.9381015,182.224847 61.0199013,177.634802 63.0856126,173.962958 C65.151324,170.291113 69.9706795,169.143602 73.413213,171.438624 L73.413213,171.438548 Z" id="Path"></path>
        </g>
    </g>
</svg>