<?xml version="1.0" encoding="UTF-8"?>
<svg width="218px" height="200px" viewBox="0 0 218 200" version="1.1" xmlns="http://www.w3.org/2000/svg" xmlns:xlink="http://www.w3.org/1999/xlink">
    <title>ic_Shipping-Red 2</title>
    <g id="ic_Shipping-Red-2" stroke="none" stroke-width="1" fill="none" fill-rule="evenodd">
        <g id="noun-box-up-4589285-FF0037" transform="translate(14.000000, 0.000000)" fill="#FF0036" fill-rule="nonzero">
            <path d="M25.0005217,200 L175.000522,200 C181.63099,200 187.989845,197.366406 192.678386,192.677865 C197.366928,187.989323 200.000543,181.630469 200.000543,175 L200.000543,65.4375 C200.005608,61.5546875 199.107371,57.7247396 197.376043,54.2497396 L177.125522,13.8122396 C175.049298,9.66380208 171.860157,6.17473958 167.914324,3.73541667 C163.96849,1.29604167 159.421355,0.00208333333 154.781511,0 L45.2190113,0 C40.579428,0.002034375 36.0322926,1.29598958 32.0861988,3.73541667 C28.1403655,6.17479167 24.951303,9.6640625 22.8750009,13.8122396 L2.62448007,54.2809896 C0.898204029,57.7458333 1.48029737e-14,61.5645833 1.48029737e-14,65.4372396 L1.48029737e-14,174.99974 C1.48029737e-14,181.630208 2.63359465,187.989063 7.32213632,192.677604 C12.010678,197.366146 18.3695322,200 25,200 L25.0005217,200 Z M112.500522,25 L154.781772,25 L167.281772,50 L112.500522,50 L112.500522,25 Z M45.2192717,25 L87.5005217,25 L87.5005217,50 L32.7192717,50 L45.2192717,25 Z M25.0002613,75 L175.000261,75 L175.000261,175 L112.500261,175 L112.500261,136.4375 L122.406251,146.34349 C125.565886,149.503125 130.170834,150.736979 134.48724,149.580469 C138.803386,148.423854 142.17474,145.052604 143.331251,140.736458 C144.487865,136.420312 143.253938,131.815104 140.094272,128.655469 L108.844272,97.4054687 C106.499506,95.0586719 103.317449,93.7393229 100.000261,93.7393229 C96.6830738,93.7393229 93.5010426,95.0586979 91.1562509,97.4054687 L59.9062509,128.655469 C56.7466155,131.815104 55.5127613,136.420052 56.6692717,140.736458 C57.8258863,145.052604 61.1971363,148.423958 65.5132822,149.580469 C69.829428,150.737083 74.4346363,149.503156 77.5942717,146.34349 L87.5002613,136.4375 L87.5002613,175 L25.0002613,175 L25.0002613,75 Z" id="Shape"></path>
        </g>
    </g>
</svg>