<?xml version="1.0" encoding="UTF-8"?>
<svg width="1200pt" height="1200pt" version="1.1" viewBox="0 0 1200 1200" xmlns="http://www.w3.org/2000/svg">
 <g fill="#ff0036">
  <path d="m694.98 642.85c0 52.457-42.523 94.98-94.98 94.98s-94.98-42.523-94.98-94.98c0-52.457 42.523-94.98 94.98-94.98s94.98 42.523 94.98 94.98"/>
  <path d="m600 0c-331.37 0-600 268.63-600 600 0 331.36 268.63 600 600 600 331.36 0 600-268.64 600-600 0-331.37-268.64-600-600-600zm0 97.957c214.45 0 397.38 134.51 469.32 323.72-0.76953 26.832-8.0625 57.613-35.93 65.82-119.39 45.926-219.11-52.812-439.51-55.871-220.41 3.0586-319.14 101.8-438.52 55.871-19.836-5.8438-29.102-23.125-32.977-42.277 65.258-201.49 254.37-347.27 477.61-347.27zm131.63 544.89c0 72.707-58.922 131.64-131.63 131.64s-131.63-58.934-131.63-131.64c0-72.695 58.934-131.63 131.63-131.63s131.63 58.945 131.63 131.63zm-480.8 275.52c-15.422 7.0078-31.824 0.98438-47.137-10.367-56.004-71.965-92.93-159.49-102.94-255.1 13.57-13.906 34.922-19.645 64.453-10.055 66.875 21.695 152.98 244.89 85.621 275.52zm527.95 146.95c-4.0547 2.6992-6.9961 5.1016-8.9883 7.2109-53.039 19.078-110.18 29.508-169.79 29.508-67.645 0-132.13-13.477-191.02-37.715-67.402-45.469-36.793-85.176-3.3711-142.91 33.672-58.164 188.27-39.781 188.27-39.781s155.58-18.371 189.25 39.781c33.68 58.176 65.047 98.016-4.3594 143.9zm245.13-196.5c-22.164 28.32-55.43 63.035-85.141 49.547-67.332-30.625 18.816-253.82 85.691-275.52 36.984-11.977 61.117 0 73.246 22.055-9.582 74.305-35.395 143.46-73.797 203.92z"/>
 </g>
</svg>
