<?xml version="1.0" encoding="UTF-8"?>
<svg width="218px" height="200px" viewBox="0 0 218 200" version="1.1" xmlns="http://www.w3.org/2000/svg" xmlns:xlink="http://www.w3.org/1999/xlink">
    <title>ic_T&amp;C-Red</title>
    <g id="ic_T&amp;C-Red" stroke="none" stroke-width="1" fill="none" fill-rule="evenodd">
        <g id="noun-terms-and-conditions-3842633-FF0037" transform="translate(29.210252, 0.000000)" fill="#FF0036" fill-rule="nonzero">
            <path d="M129.895379,33.0531588 L98.5270573,1.68483678 C98.1062867,1.26406618 97.6848143,1.05297913 97.2640437,0.84259383 L97.2640437,34.3161723 L130.737622,34.3161723 C130.526553,33.8947175 130.316167,33.4739294 129.895379,33.0524746 L129.895379,33.0531588 Z" id="Path"></path>
            <path d="M124.842764,118.737099 C127.15837,118.737099 129.473977,118.947484 131.579234,119.157869 L131.579234,46.1054684 L91.3688343,46.1054684 C88.2109495,46.1054684 85.4737652,43.5795115 85.4737652,40.2103993 L85.4737652,9.97249813e-15 L5.8950691,9.97249813e-15 C2.73718434,9.97249813e-15 -2.99174944e-14,2.73718434 -2.99174944e-14,5.8950691 L-2.99174944e-14,163.15773 C-2.99174944e-14,166.315615 2.52595694,169.052799 5.8950691,169.052799 L78.5264187,169.052799 C78.3160334,167.789786 78.3160334,166.526843 78.3160334,165.262987 C78.3160334,139.578857 99.1580728,118.736818 124.842202,118.736818 L124.842764,118.737099 Z M32.6325285,34.3163127 L61.2640171,34.3163127 C64.4219018,34.3163127 67.1590862,37.053497 67.1590862,40.2113818 C67.1590862,43.3692666 64.6331292,46.1064509 61.2640171,46.1064509 L32.6325285,46.1057655 C29.4746438,46.1057655 26.7374594,43.5798085 26.7374594,40.2106964 C26.7381447,37.0528116 29.4746438,34.3163127 32.6325285,34.3163127 L32.6325285,34.3163127 Z M32.6325285,65.6846347 L98.9481086,65.6846347 C102.105993,65.6846347 104.843178,68.2105916 104.843178,71.5797038 C104.843178,74.7375885 102.317221,77.4747729 98.9481086,77.4747729 L32.6325285,77.4747729 C29.4746438,77.4747729 26.7374594,74.948816 26.7374594,71.5797038 C26.7374594,68.2114688 29.4746438,65.6846347 32.6325285,65.6846347 Z M32.6325285,96.842431 L98.9481086,96.842431 C102.105993,96.842431 104.843178,99.368388 104.843178,102.7375 C104.843178,105.895385 102.317221,108.632569 98.9481086,108.632569 L32.6325285,108.631884 C29.4746438,108.631884 26.7374594,106.105927 26.7374594,102.736815 C26.7374594,99.5796319 29.4746438,96.842431 32.6325285,96.842431 L32.6325285,96.842431 Z M63.7903249,140.000189 L32.6325285,140.000189 C29.4746438,140.000189 26.7374594,137.263005 26.7374594,134.10512 C26.7374594,130.947236 29.2634164,128.210051 32.6325285,128.210051 L63.7903249,128.210051 C66.9482096,128.210051 69.685394,130.736008 69.685394,134.10512 C69.6847087,137.263005 66.9482096,140.000189 63.7903249,140.000189 Z" id="Shape"></path>
            <path d="M124.842764,130.526535 C105.684929,130.526535 90.1060312,146.105609 90.1060312,165.263268 C90.1060312,184.420926 105.685105,200 124.842764,200 C144.000422,200 159.579496,184.420926 159.579496,165.263268 C159.579496,146.105609 144.000422,130.526535 124.842764,130.526535 Z M141.052888,162.105383 L124.210836,178.947435 C123.158208,180.000063 121.473651,180.631921 120.000323,180.631921 C118.526924,180.631921 117.052788,180.000063 115.78981,178.947435 L107.368784,170.526409 C105.053177,168.210802 105.053177,164.42099 107.368784,162.315733 C109.68439,160.000126 113.474203,160.000126 115.57946,162.315733 L119.789973,166.526246 L132.421512,153.894707 C134.737118,151.5791 138.526931,151.5791 140.632187,153.894707 C143.36867,156.210314 143.36867,159.789776 141.052958,162.105383 L141.052888,162.105383 Z" id="Shape"></path>
        </g>
    </g>
</svg>