<?xml version="1.0" encoding="UTF-8"?>
<svg width="1200pt" height="1200pt" version="1.1" viewBox="0 0 1200 1200" xmlns="http://www.w3.org/2000/svg">
 <g fill="#ff0036">
  <path d="m1042.3 245.24c-87.113-96.848-207.71-164.07-344.44-183.38-3.9219 23.258-10.512 61.387-19.977 115.37-2.293 12.953-9.5547 24.246-21.086 32.707-11.668 8.5664-26.805 13.402-39.535 12.641-85.93-5.1953-172.67 20.695-244.33 72.887-71.031 52.594-121.68 127.64-142.42 211.17-3.1016 12.371-12.191 25.383-23.887 33.934-11.531 8.4453-24.484 12.039-37.484 10.348-54.422-7.1289-92.789-12.234-116.17-15.469-3.3398 20.562-5.6914 41.453-6.8125 62.719-8.25 157.54 48.34 304.04 146.22 412.59 97.762 108.68 237.61 180.22 395.13 188.44 157.53 8.25 304.07-48.355 412.61-146.21 108.66-97.793 180.19-237.59 188.41-395.15 8.2188-157.51-48.312-304.03-146.24-412.61zm-47.219 123.16c7.9375-9.2109 21.863-10.258 31.074-2.3203 9.2109 7.9219 10.273 21.836 2.3203 31.043-7.9219 9.2266-21.879 10.305-31.031 2.3516-9.1914-7.9531-10.258-21.852-2.3633-31.074zm-151.2-63.199c7.9688-9.2109 21.879-10.289 31.121-2.3203 9.2109 7.9219 10.242 21.836 2.3047 31.074-7.9375 9.2109-21.863 10.242-31.059 2.3203-9.2422-7.9492-10.273-21.863-2.3672-31.074zm-35.91-162.83c12.16-0.91406 22.734 8.1758 23.617 20.32 0.92969 12.129-8.1602 22.688-20.293 23.617-12.16 0.88281-22.734-8.207-23.617-20.32-0.88281-12.164 8.1758-22.719 20.293-23.617zm-86.754 11.352c12.117-0.91406 22.688 8.207 23.57 20.32 0.94531 12.129-8.1758 22.719-20.32 23.602-12.117 0.92969-22.688-8.1758-23.602-20.309-0.91406-12.145 8.2031-22.699 20.352-23.613zm-551.06 680.58c-7.9375 9.2109-21.805 10.289-31.031 2.3047-9.2109-7.9375-10.289-21.836-2.3359-31.043 7.9219-9.2383 21.82-10.289 31.031-2.3359 9.2578 7.9219 10.273 21.863 2.3359 31.074zm21.746-212.71c-12.129 0.92969-22.688-8.1758-23.602-20.309-0.92969-12.129 8.1602-22.672 20.32-23.633 12.145-0.89844 22.672 8.2227 23.602 20.336 0.89844 12.121-8.1914 22.68-20.32 23.605zm47.652 266.06c-7.8906 9.1797-21.82 10.242-31.043 2.2773-9.1797-7.9062-10.273-21.836-2.3359-31.016 7.9219-9.2109 21.895-10.289 31.059-2.3359 9.2695 7.9375 10.273 21.863 2.3203 31.074zm-10.738-191.6c-12.07 0.91406-22.688-8.1484-23.602-20.32-0.89844-12.129 8.25-22.672 20.352-23.617 12.129-0.86719 22.688 8.1914 23.602 20.309 0.89844 12.188-8.1914 22.73-20.352 23.629zm83.117 228.24c-7.9062 9.2383-21.805 10.273-31.031 2.3359-9.2383-7.9375-10.258-21.805-2.3359-31.074 7.9531-9.2109 21.863-10.258 31.059-2.3047 9.2266 7.9219 10.258 21.82 2.3086 31.043zm78.844 26.566c-7.9805 9.2109-21.82 10.258-31.074 2.2773-9.2109-7.9219-10.242-21.805-2.3203-31.043 7.9531-9.2109 21.848-10.273 31.059-2.3359 9.2422 7.9375 10.262 21.863 2.3359 31.102zm35.914 162.79c-12.145 0.91406-22.703-8.1758-23.602-20.293-0.94531-12.16 8.1602-22.703 20.32-23.602 12.129-0.91406 22.688 8.1758 23.586 20.293 0.88672 12.16-8.1914 22.719-20.305 23.602zm86.785-11.336c-12.102 0.91406-22.672-8.1758-23.586-20.293-0.88281-12.129 8.1758-22.746 20.336-23.617 12.086-0.91406 22.672 8.1914 23.57 20.309 0.95703 12.145-8.1328 22.703-20.32 23.602zm77.121-25.219c-12.16 0.86719-22.688-8.2227-23.617-20.367-0.88281-12.086 8.1914-22.672 20.32-23.57 12.117-0.91406 22.688 8.1758 23.586 20.32 0.93359 12.117-8.1289 22.66-20.289 23.617zm25.027-122.29c-90.109-0.43359-171.91-37.543-230.57-96.922-58.344-58.914-94.512-140.4-94.512-229.76v-1.8281c0.44922-90.125 37.59-171.91 96.953-230.58 58.914-58.344 140.4-94.512 229.77-94.512h1.8281c90.094 0.44922 171.91 37.574 230.58 96.938 58.344 58.914 94.48 140.37 94.48 229.76v1.8438c-0.43359 90.094-37.574 171.91-96.953 230.57-58.914 58.359-140.41 94.512-229.8 94.48h-1.7852zm49.492 85.332c-12.176 0.91406-22.734-8.2227-23.66-20.32-0.88281-12.129 8.207-22.719 20.336-23.617 12.117-0.91406 22.719 8.2227 23.617 20.293 0.92969 12.156-8.1914 22.742-20.293 23.645zm160.82 66.117c-7.9688 9.2109-21.82 10.258-31.031 2.3047-9.2539-7.9219-10.273-21.836-2.3516-31.074 7.9688-9.1797 21.836-10.273 31.043-2.3047 9.2148 7.9648 10.277 21.832 2.3398 31.074zm53.344-69.398c-7.9062 9.2109-21.863 10.242-31.059 2.3047-9.1797-7.9375-10.242-21.863-2.3359-31.043 7.9531-9.2109 21.848-10.289 31.074-2.3359 9.1953 7.9219 10.273 21.832 2.3203 31.074zm36.645-72.379c-7.9062 9.1797-21.805 10.258-31.043 2.3516-9.2266-7.9961-10.258-21.91-2.3359-31.121 7.9531-9.2109 21.863-10.242 31.043-2.3047 9.2266 7.9375 10.32 21.836 2.3359 31.074zm26.566-78.816c-7.9219 9.2383-21.836 10.289-31.074 2.3359-9.1797-7.9219-10.273-21.836-2.3047-31.074 7.9375-9.2109 21.848-10.242 31.074-2.3359 9.1953 7.9219 10.242 21.852 2.3047 31.074zm13.613-525.18c-7.9688 9.1953-21.863 10.227-31.074 2.3047-9.2266-7.9219-10.258-21.836-2.3047-31.059 7.9219-9.2266 21.805-10.305 31.043-2.3203 9.2422 7.9375 10.23 21.832 2.3359 31.074zm52.984 243.43c-12.102 0.89844-22.688-8.207-23.57-20.336-0.94531-12.117 8.1602-22.703 20.309-23.617 12.117-0.92969 22.703 8.1758 23.617 20.309 0.89453 12.141-8.2109 22.699-20.355 23.645zm13.359 54.137c-0.89844-12.117 8.207-22.703 20.309-23.586 12.16-0.92969 22.734 8.1602 23.617 20.277 0.94531 12.16-8.1758 22.703-20.293 23.602-12.148 0.91016-22.719-8.1641-23.633-20.293zm25.262 77.125c-0.89844-12.16 8.1758-22.746 20.309-23.602 12.129-0.91406 22.688 8.1484 23.633 20.293 0.89844 12.117-8.207 22.703-20.309 23.602-12.129 0.91016-22.73-8.1797-23.633-20.293zm34.969 107.09c-12.145 0.94531-22.734-8.1758-23.633-20.293-0.88281-12.117 8.207-22.703 20.352-23.602 12.117-0.91406 22.688 8.1758 23.57 20.32 0.93359 12.133-8.1719 22.691-20.289 23.574zm15.203-391.77c-7.9219 9.2266-21.836 10.258-31.043 2.3203-9.2109-7.9531-10.273-21.836-2.3359-31.074 7.9531-9.2109 21.863-10.258 31.059-2.3203 9.2539 7.9531 10.242 21.867 2.3203 31.074z"/>
  <path d="m910.35 627.91c0-80.195-32.379-153.12-84.719-205.99-52.684-53.254-125.9-86.5-206.75-86.902h-1.6328c-80.18 0-153.12 32.379-206 84.73-53.27 52.668-86.516 125.9-86.934 206.77v1.6328c0 80.18 32.406 153.11 84.746 205.99 52.684 53.254 125.87 86.516 206.7 86.934h1.6328c80.195 0 153.17-32.391 206.05-84.73 53.254-52.668 86.484-125.9 86.918-206.75zm-292.98-239.57c18.914 0 34.176 15.305 34.176 34.203 0 18.871-15.273 34.176-34.176 34.176-18.945 0-34.219-15.305-34.219-34.176 0-18.883 15.277-34.203 34.219-34.203zm-198.86 221.04c-18.871 0-34.188-15.305-34.188-34.188 0-18.914 15.32-34.219 34.188-34.219 18.883 0 34.219 15.305 34.219 34.219 0 18.883-15.336 34.188-34.219 34.188zm74.785 219.48c-18.898 0-34.219-15.289-34.219-34.16 0-18.898 15.32-34.203 34.219-34.203 18.883 0 34.188 15.305 34.188 34.203 0.003907 18.852-15.301 34.16-34.188 34.16zm124.05-73.906c-35.027 0-66.82-14.195-89.793-37.156-22.93-22.957-37.184-54.781-37.168-89.777-0.015625-35.012 14.242-66.836 37.168-89.777 22.973-22.957 54.766-37.184 89.793-37.168 35.027-0.015625 66.852 14.227 89.777 37.168 22.973 22.941 37.199 54.766 37.199 89.777 0 35-14.227 66.82-37.199 89.777-22.926 22.957-54.75 37.156-89.777 37.156zm124.04 73.906c-18.855 0-34.16-15.289-34.16-34.16 0-18.898 15.305-34.203 34.16-34.203 18.898 0 34.203 15.305 34.203 34.203 0 18.852-15.305 34.16-34.203 34.16zm74.801-219.48c-18.898 0-34.219-15.305-34.219-34.188 0-18.914 15.32-34.219 34.219-34.219 18.883 0 34.176 15.305 34.176 34.219 0 18.883-15.289 34.188-34.176 34.188z"/>
  <path d="m200.5 499.18c21.715-87.383 74.383-169.57 154.23-228.7 80.27-58.512 174.48-84.191 264.35-78.758 8.2227 0.48047 25.984-6.4414 28.332-19.812 7.2188-41.094 22.148-126.35 23.918-139.56 2.3359-17.523-16.023-29.309-21.926-29.863-80.27-7.4883-159.71 1.7383-236.63 28.078-17.207 3.5781-34.641 1.9609-50.574-22.523-6.1562-8.3555-21.207-7.1445-28.125-4.0742-31.148 13.809-61.641 30.25-91.098 49.285l-0.14844-0.14844c-0.97266 0.64453-1.8867 1.3633-2.8906 2.0078-0.41797 0.28516-0.86719 0.59766-1.2891 0.88281-8.7891 5.8125-17.551 11.695-26.133 17.984-0.46484 0.32812-0.86719 0.70312-1.332 1.0352-0.43359 0.34375-0.94531 0.62891-1.3789 0.97266-8.582 6.3047-16.816 12.895-24.996 19.543-0.39062 0.31641-0.85547 0.62891-1.2266 0.97266-0.91406 0.73438-1.8711 1.4219-2.7852 2.1562l0.10937 0.17188c-26.973 22.434-51.801 46.574-74.293 72.199-4.9883 5.6758-10.633 19.664-4.4922 28.051 18.539 22.555 14.914 39.656 6.3516 55.02-48.16 65.488-80.719 138.55-97.613 217.37-1.2578 5.8125 4.5391 26.852 21.926 29.848 13.133 2.2773 98.961 13.539 140.29 18.961 13.488 1.7461 25.438-13.137 27.414-21.105zm354.64-429.26c14.453-10.602 34.641-7.4727 45.242 6.9336 10.574 14.391 7.4883 34.625-6.9648 45.211-14.406 10.602-34.641 7.4883-45.227-6.9023-10.543-14.395-7.4727-34.656 6.9492-45.242zm-413.4 383.93c-14.422 10.602-34.684 7.4883-45.258-6.9023-10.586-14.406-7.4883-34.652 6.9648-45.258 14.406-10.602 34.641-7.4727 45.227 6.9492 10.559 14.379 7.5 34.609-6.9336 45.211z"/>
 </g>
</svg>
