<?xml version="1.0" encoding="UTF-8"?>
<svg width="1200pt" height="1200pt" version="1.1" viewBox="0 0 1200 1200" xmlns="http://www.w3.org/2000/svg">
 <g fill="#ff0036" fill-rule="evenodd">
  <path d="m605.86 183.06c-3.9766 0.003906-8.1328 1.1055-11.625 3-17.145 14.551-34.926 28.391-48.75 43.5-6.3359 7.9766-12.742 17.863-13.125 31.875v0.37109c-0.78125 27.645 17.289 45.027 30.75 57.375 9.4883 8.3203 19.707 16.641 29.25 23.625 3.1445 1.4609 6.6562 2.2461 10.125 2.25 20.664 0 40.648-0.17969 60.75-0.37109-10.973 28.508-29.539 74.68-53.25 125.62-1.3711 2.8555-2.0859 5.8398-2.25 9-0.16797 3.1602 0.43359 6.3945 1.5 9.375 1.0664 2.9805 2.7422 5.9102 4.875 8.25 2.1367 2.3398 4.6289 4.2891 7.5 5.625 2.8711 1.3359 5.8398 2.125 9 2.25 3.1641 0.13281 6.4062-0.39453 9.375-1.5 2.9688-1.1055 5.9375-3.0898 8.25-5.25 2.3125-2.1641 3.9492-4.6133 5.25-7.5 29.809-64.055 51.879-121.45 61.125-146.25 10.336 0.12109 20.988 0.35938 31.5 0.74219 46.871 76.25 35.074 163.82-9.75 226.12-7.4453 10.379-16.609 20.703-27 31.125-9.9258 9.9531-20.719 19.789-33 30-14.867 12.258-87.375 51.68-87.375 128.62v343.12c0 3.1406 0.30078 6.4727 1.5 9.375 1.2031 2.9023 3.0273 5.2773 5.25 7.5 2.2227 2.2227 4.9727 4.0469 7.875 5.25s6.2344 1.875 9.375 1.875h435c3.1406 0 6.4688-0.67188 9.375-1.875 2.8984-1.2031 5.6523-3.0273 7.875-5.25 2.2227-2.2227 3.6719-4.5977 4.875-7.5 1.2031-2.9023 1.875-6.2344 1.875-9.375v-481.5c0-20.227-7.0273-37.93-16.125-51.75-9.1016-13.82-19.672-24.676-29.625-36-19.91-22.652-38.098-45.797-44.25-94.5-6.9414-54.383-10.461-68.598-11.625-96.375h37.5c25.641 0 48.027-9.7109 62.625-25.125 14.594-15.418 21.707-35.32 21.75-55.125 0-19.805-7.1445-40.051-21.75-55.5s-36.895-25.125-62.625-25.125h-402zm10.125 48h57v65.25c-20.609 0.16797-41.066 0.67188-61.5 0.74219-0.53906-0.42188-0.92578-1.0547-1.5-1.5-4.3242-3.3281-9.7383-7.1406-14.625-11.625-8.8203-8.0859-13.727-17.426-14.625-20.25 0.26562-0.53906 0.96094-2.0352 2.625-4.125 2.9375-3.7031 8.0156-8.543 13.5-13.125 5.4766-4.582 11.086-9.125 16.125-13.125 1.0547-0.83984 1.9883-1.4102 3-2.25zm105 0h286.88c14.488 0 22.324 4.3789 27.75 10.125 5.4336 5.7461 8.6445 13.672 8.625 22.125 0 8.4531-3.1484 16.723-8.625 22.5-5.4688 5.7773-13.414 10.125-27.75 10.125h-61.875c-3.1445 0-6.4648 0.67188-9.375 1.875-2.9023 1.207-5.6523 3.0234-7.875 5.25-2.2227 2.2266-4.0508 4.9648-5.25 7.875s-1.5078 5.8555-1.5 9c0.12109 34.629 1.9883 50.363 6 79.125h-109.5c-6.5352-31.164-19.324-62.113-39.375-91.125-2.0859-3.0195-5.043-5.3438-8.25-7.125-3.2109-1.7812-6.8398-2.8242-10.5-3-13.469-0.64844-26.414-0.92578-39.375-1.1289v-65.625zm102.75 216h110.62c6.7383 52.141 28.207 86.102 48 110.25l-214.12 51.375c2.4297-3.082 4.8594-6.2188 7.125-9.375 31.074-43.211 48.938-96.996 48.375-152.25zm19.875 268.12c65.613 0 120 53.477 120 118.88v171.38h-0.003906c0 6.3633-2.5273 12.469-7.0273 16.969s-10.605 7.0312-16.973 7.0312h-191.25 0.003906c-6.3672 0-12.473-2.5312-16.973-7.0312s-7.0273-10.605-7.0273-16.969v-171.38c0-65.363 53.637-118.88 119.25-118.88z"/>
  <path d="m132.07 243.95c-6.418-0.078124-12.598 2.4141-17.164 6.9219-4.5664 4.5117-7.1328 10.66-7.1328 17.078 0 6.4141 2.5664 12.566 7.1328 17.074 4.5664 4.5078 10.746 7.0039 17.164 6.9219h65.445c6.418 0.082032 12.598-2.4141 17.164-6.9219 4.5664-4.5078 7.1367-10.66 7.1367-17.074 0-6.418-2.5703-12.566-7.1367-17.078-4.5664-4.5078-10.746-7-17.164-6.9219z"/>
  <path d="m267.8 243.95c-6.4141-0.078124-12.598 2.4141-17.16 6.9219-4.5664 4.5117-7.1367 10.66-7.1367 17.078 0 6.4141 2.5703 12.566 7.1367 17.074 4.5625 4.5078 10.746 7.0039 17.16 6.9219h65.57c6.4141 0.082032 12.598-2.4141 17.164-6.9219 4.5664-4.5078 7.1328-10.66 7.1328-17.074 0-6.418-2.5664-12.566-7.1328-17.078-4.5664-4.5078-10.75-7-17.164-6.9219z"/>
  <path d="m239.5 384.91c-3.7734 0.125-7.4648 1.1367-10.777 2.9531l-56.734 30.121c-5.707 2.9375-10 8.0352-11.922 14.16-1.918 6.125-1.3047 12.766 1.7031 18.434 3.0117 5.668 8.1641 9.8984 14.312 11.738 6.1523 1.8438 12.781 1.1445 18.41-1.9375l56.738-30.121c6.5195-3.3398 11.156-9.4766 12.59-16.66 1.4336-7.1836-0.49219-14.629-5.2305-20.219-4.7383-5.5859-11.766-8.707-19.09-8.4688z"/>
  <path d="m357.09 322.39c-3.7734 0.125-7.4688 1.1367-10.777 2.9531-19.031 10.102-37.887 20.172-56.688 30.094h-0.003906c-5.7188 2.918-10.027 8.0117-11.969 14.133-1.9375 6.1211-1.3398 12.766 1.6562 18.445 3 5.6797 8.1484 9.9219 14.297 11.777 6.1484 1.8516 12.781 1.1641 18.422-1.9102 18.941-9.9961 37.828-20.086 56.785-30.145 6.5195-3.3438 11.152-9.4766 12.59-16.66 1.4336-7.1836-0.49219-14.629-5.2266-20.215-4.7383-5.5898-11.766-8.707-19.086-8.4727z"/>
  <path d="m180.45 71.945c-7.2383-0.015624-14.102 3.2344-18.672 8.8516-4.5703 5.6172-6.3594 12.996-4.8711 20.078 1.4883 7.0859 6.0938 13.121 12.535 16.426l56.738 30.121c5.6328 3.082 12.262 3.7773 18.41 1.9375 6.1484-1.8438 11.301-6.0703 14.312-11.738 3.0078-5.668 3.6211-12.309 1.7031-18.434-1.9219-6.1211-6.2148-11.223-11.922-14.16l-56.734-30.121h0.003906c-3.5273-1.9336-7.4805-2.9531-11.504-2.9609z"/>
  <path d="m298.1 134.34c-7.2383-0.035156-14.105 3.2031-18.691 8.8047-4.582 5.6055-6.3906 12.977-4.9219 20.066s6.0586 13.137 12.492 16.457c18.91 10.102 37.902 20.18 56.738 30.238 5.6211 3.1172 12.262 3.8438 18.426 2.0234 6.1641-1.8203 11.344-6.0391 14.371-11.707 3.0312-5.6719 3.6562-12.32 1.7422-18.457-1.9141-6.1367-6.2109-11.25-11.93-14.191-18.91-10.102-37.902-20.18-56.738-30.238l0.003906-0.003906c-3.5195-1.9414-7.4727-2.9727-11.492-2.9922z"/>
  <path d="m415.66 196.86c-5.3398 0-10.668 1.8047-14.875 5.0938-4.207 3.2891-7.2617 8.0234-8.5312 13.211-0.63281 2.5938-0.83203 5.293-0.57812 7.9531 0.25 2.6562 0.94922 5.2734 2.0586 7.7031 2.2148 4.8594 6.1016 8.9336 10.852 11.379l3.2695 1.7422h-4.3242c-3.168 0-6.3398 0.55078-9.2773 1.7383s-5.6367 2.957-7.8906 5.1797c-2.2539 2.2266-4.0586 4.9023-5.2812 7.8242-1.2227 2.9219-1.8555 6.0859-1.8555 9.2539 0 3.168 0.63672 6.332 1.8555 9.2539 1.2227 2.9219 3.0273 5.5977 5.2812 7.8242 2.2539 2.2266 4.9531 3.9961 7.8906 5.1797 2.9375 1.1875 6.1094 1.7773 9.2773 1.7383h5.5234l-1.8945 1.0078c-2.8164 1.4492-5.3398 3.4648-7.3789 5.8867s-3.5938 5.2539-4.5391 8.2773c-0.94531 3.0234-1.2891 6.2305-0.99609 9.3867 0.29297 3.1523 1.2148 6.2461 2.6992 9.043 1.4844 2.7969 3.5312 5.2969 5.9766 7.3047 2.4492 2.0078 5.3008 3.5273 8.332 4.4336 3.0352 0.91016 6.25 1.2109 9.3984 0.875 3.1484-0.33594 6.2305-1.293 9.0078-2.8125l56.738-30.121c25.316-14.617 23.156-60.316-2.5078-75.137l-56.734-30.238c-3.5039-1.9297-7.4961-2.9648-11.496-2.9805z"/>
 </g>
</svg>
