<?xml version="1.0" encoding="UTF-8"?>
<svg width="218px" height="200px" viewBox="0 0 218 200" version="1.1" xmlns="http://www.w3.org/2000/svg" xmlns:xlink="http://www.w3.org/1999/xlink">
    <title>ic_Fab-Red</title>
    <g id="ic_Fab-Red" stroke="none" stroke-width="1" fill="none" fill-rule="evenodd">
        <g id="noun-welding-4302147-FF0037" transform="translate(22.526801, 0.000000)" fill="#FF0036" fill-rule="nonzero">
            <path d="M80.4592972,154.435825 C81.4029653,153.657657 82.0013129,152.538936 82.1262377,151.32238 C82.2511585,150.106579 81.8915225,148.88927 81.1260653,147.935987 L76.8485163,142.602495 L91.1253453,131.047613 C93.0071206,129.515945 95.3654149,128.690072 97.792211,128.714719 C101.028279,128.678118 104.101188,130.132604 106.124469,132.658823 L110.457626,137.936504 L106.068657,141.491554 L106.069453,141.491554 C105.107473,142.277686 104.505153,143.420281 104.402512,144.658366 C104.318966,145.87097 104.673831,147.073959 105.402685,148.047204 L117.512833,162.990719 C117.916247,163.46732 118.406373,163.862769 118.956975,164.157187 C119.606246,164.508883 120.330312,164.699845 121.067843,164.712575 C122.138025,164.691888 123.172397,164.321098 124.011816,163.657508 L139.288776,151.269726 L139.288776,151.26893 C140.272226,150.517813 140.896829,149.390332 141.011406,148.15793 C141.129962,146.924631 140.771904,145.692228 140.011234,144.714299 L136.122738,139.937092 L127.956693,129.826392 L127.956693,129.825596 C127.06236,128.751442 125.743164,128.122052 124.34522,128.10376 C123.27901,128.095008 122.241481,128.447492 121.401248,129.103933 L117.679169,132.159325 L113.40162,126.771039 L113.40162,126.770243 C110.047818,122.659722 105.202984,120.042881 99.9261185,119.49067 C94.6492525,118.939273 89.3683128,120.497992 85.2364041,123.826271 L70.959575,135.325341 L66.682026,130.047661 L66.682026,130.048456 C65.7892812,128.940877 64.4373313,128.305925 63.0155554,128.325826 C61.9676578,128.326622 60.9507214,128.678317 60.1271914,129.325999 L35.5720231,149.213953 L28.2946901,155.102713 L6.40789765,172.712567 L6.40710183,172.712567 C5.44114978,173.487557 4.82609934,174.618215 4.70038014,175.850659 C4.57545941,177.083163 4.95022974,178.314119 5.74112818,179.268013 L10.0742853,184.656299 L1.74121247,191.322553 C0.779232435,192.098338 0.163387593,193.223415 0.028115198,194.451071 C-0.107149049,195.679583 0.249305221,196.911273 1.01873444,197.877999 C1.80168887,198.828837 2.92517693,199.436718 4.14969663,199.571196 C5.37423669,199.70646 6.60276914,199.35795 7.57418015,198.599683 L15.907253,191.822212 L20.184802,197.210498 L20.1840062,197.211294 C20.9804858,198.169281 22.1135271,198.785146 23.3508183,198.933129 L23.7956019,198.933129 L23.7948063,198.933129 C24.86896,198.931538 25.908934,198.558375 26.7395933,197.878062 L51.7938089,177.656865 L59.6264085,171.268448 L80.4592972,154.435825 Z" id="Path"></path>
            <path d="M167.287431,193.999079 C166.454369,191.221321 164.565484,185.166348 162.454412,179.277589 L162.454412,179.278385 C161.002306,174.430292 158.94947,169.783652 156.343628,165.445606 C154.054528,162.620998 150.737391,160.822798 147.121843,160.445558 C146.622959,160.39941 146.122486,160.381108 145.621992,160.389861 C142.497344,160.400204 139.465784,161.45607 137.011286,163.390256 C134.178734,165.683429 132.372589,169.006881 131.986592,172.631188 C131.60149,176.255494 132.669288,179.88367 134.955211,182.721926 C138.399656,187.055083 155.454855,196.610516 160.620505,199.443068 L160.6213,199.443864 C161.300005,199.821816 162.066256,200.013572 162.842774,199.999253 C163.903403,199.972995 164.930625,199.623684 165.787561,198.99908 C166.489344,198.395966 167.003363,197.605048 167.2691,196.718739 C167.534858,195.83235 167.541214,194.888682 167.287401,193.999033 L167.287431,193.999079 Z" id="Path"></path>
            <path d="M32.332797,142.829409 C29.3751774,135.906297 27.8562401,128.453178 27.868258,120.924284 L27.868258,51.1594964 C27.8260875,47.5543373 29.20102,44.0770974 31.6978865,41.4761439 C34.1939382,38.8749867 37.6121072,37.3584937 41.2164515,37.2535919 C41.4185535,37.2591617 41.6214539,37.2440438 41.8211747,37.2066468 L125.630581,37.2066468 C125.77062,37.2066468 125.909865,37.2535919 126.09606,37.2535919 C128.770343,37.3395258 131.358668,38.2131684 133.537162,39.7647169 C137.284092,42.3450974 139.51188,46.6106285 139.491103,51.1594964 L139.491103,120.924284 C139.481555,124.544516 139.139407,128.156193 138.467873,131.714503 L145.444351,140.365133 C145.537445,140.504375 145.630539,140.597465 145.723635,140.736709 L145.722839,140.736709 C147.766082,134.331589 148.801248,127.647817 148.792577,120.924325 L148.792577,51.1595371 C148.807608,45.6622756 146.862969,40.3399861 143.309487,36.1467659 C139.755251,31.9535457 134.823644,29.1631579 129.398694,28.2766868 C123.708739,16.8906661 113.976907,8.03634336 102.105894,3.44449634 C90.2344732,-1.14816545 77.0781583,-1.14816545 65.2069414,3.44449634 C53.3363355,8.03715813 43.6053188,16.8914809 37.9161787,28.2766868 C32.4961167,29.1654597 27.5700097,31.9574159 24.0245327,36.1514509 C20.4782409,40.3454858 18.5431592,45.6669605 18.5675734,51.1595371 L18.5675734,120.924325 C18.5675734,130.590974 20.7112654,140.13826 24.847248,148.877089 L32.332797,142.829409 Z M83.6796806,9.3006239 C90.5598126,9.30778492 97.3325986,11.00814 103.400404,14.2528035 C109.467394,17.49763 114.642414,22.18562 118.468172,27.9049067 L48.8907818,27.9049067 C52.7083925,22.1784907 57.8819862,17.4831678 63.9514208,14.2375265 C70.0208555,10.9918853 76.7975116,9.29634635 83.680088,9.30041288 L83.6796806,9.3006239 Z" id="Shape"></path>
            <path d="M121.07157,171.6662 C118.049583,171.650286 115.15022,170.467121 112.979465,168.364136 C104.199287,173.866286 94.040108,176.768908 83.6782547,176.735503 C78.0640735,176.737094 72.4814646,175.890503 67.1210847,174.224378 L67.074936,174.224378 L58.7027541,181.061531 L58.7027541,181.060735 C69.6504279,185.610417 81.6344907,187.079246 93.3570119,185.308137 C105.079737,183.537762 116.09524,178.595033 125.210494,171.014605 C125.372016,170.918328 125.51365,170.792621 125.629021,170.643029 C125.539109,170.758403 125.403044,170.826829 125.257445,170.829216 C123.931058,171.383016 122.507592,171.667066 121.070539,171.666272 L121.07157,171.6662 Z" id="Path"></path>
            <path d="M46.4609303,65.10838 L120.845471,65.10838 C122.082742,65.10838 123.269823,65.6001148 124.145091,66.4753421 C125.020359,67.3505694 125.512053,68.536917 125.512053,69.7749619 L125.512053,102.329147 C125.512053,103.567212 125.020318,104.754313 124.145091,105.628767 C123.269843,106.504014 122.082701,106.995729 120.845471,106.995729 L46.4609303,106.995729 C45.2236594,106.995729 44.0365785,106.503994 43.1613105,105.628767 C42.2860628,104.754313 41.7951428,103.567192 41.7951428,102.329147 L41.7951428,69.7749619 C41.7951428,68.5368967 42.2860832,67.3506101 43.1613105,66.4753421 C44.0365581,65.6000945 45.2237002,65.10838 46.4609303,65.10838 L46.4609303,65.10838 Z" id="Path"></path>
        </g>
    </g>
</svg>