<?xml version="1.0" encoding="UTF-8"?>
<svg width="218px" height="200px" viewBox="0 0 218 200" version="1.1" xmlns="http://www.w3.org/2000/svg" xmlns:xlink="http://www.w3.org/1999/xlink">
    <title>ic_CompDiagnostics-Red</title>
    <g id="ic_CompDiagnostics-Red" stroke="none" stroke-width="1" fill="none" fill-rule="evenodd">
        <g id="noun-stethoscope-3831023-FF0037" transform="translate(80.498527, 0.000000)" fill="#FF0036" fill-rule="nonzero">
            <path d="M137.49941,131.249863 C137.519919,126.626115 135.830961,122.157618 132.757725,118.702745 C129.68449,115.247871 125.442979,113.05131 120.847732,112.533623 C116.253234,112.015804 111.629487,113.214773 107.864114,115.899059 C104.099491,118.583307 101.459118,122.564117 100.450556,127.07649 C99.4420124,131.588862 100.137074,136.315172 102.400929,140.34642 C104.664803,144.378418 108.338676,147.431104 112.717174,148.918728 C112.610972,149.271753 112.537731,149.633571 112.498905,149.999777 L112.498905,168.749767 C112.801399,173.383827 111.266243,177.950387 108.22447,181.460198 C105.183409,184.970008 100.881974,187.139382 96.2516641,187.499757 L84.9966078,187.499757 C80.3670478,187.139401 76.0646752,184.970008 73.0238018,181.460198 C69.9829285,177.950387 68.4469293,173.383827 68.7493667,168.749767 L68.7493667,117.98042 C97.8868507,110.924236 118.733089,56.2179537 124.590586,28.7904688 C125.757342,23.3514717 124.389905,17.6773498 120.873588,13.3671022 C117.200465,8.83785468 111.671468,6.22016862 105.840596,6.2501686 L99.9995996,6.2501686 C99.4663873,6.28532483 98.9412564,6.39152665 98.4366192,6.56511218 C96.6619701,3.27655148 93.5089344,0.953990251 89.8423739,0.234740645 C86.1750634,-0.485221461 82.3781905,0.473503014 79.492567,2.84811421 C76.6067561,5.22336291 74.935382,8.76392347 74.935382,12.5013589 C74.935382,16.2382319 76.6075061,19.7786049 79.493317,22.1532911 C82.379128,24.5277898 86.1760009,25.4864768 89.8431239,24.7666647 C93.5102469,24.0468526 96.6626826,21.7241039 98.4366192,18.4347932 C98.9412564,18.60911 99.4671373,18.7145805 99.9995996,18.750468 L105.840596,18.750468 C107.896533,18.7277636 109.851407,19.6388988 111.156593,21.2282791 C112.297699,22.6052409 112.745224,24.4289024 112.370955,26.1779014 C109.789832,37.7998951 106.173896,49.1672638 101.567024,60.1453828 C89.3538429,65.9051922 76.0032877,68.8465031 62.4995451,68.7506906 C48.9965525,68.8466381 35.6439348,65.9051922 23.4320665,60.1453828 C18.824444,49.1678263 15.2085085,37.8010201 12.6273849,26.1779014 C12.2531164,24.4288836 12.7013592,22.6050909 13.8417467,21.2282791 C15.1469148,19.6389175 17.1018074,18.7277805 19.1583063,18.750468 L24.9993031,18.750468 C25.5317653,18.7145786 26.056915,18.6083787 26.5615523,18.4347932 C28.33547,21.7241039 31.4884871,24.0474151 35.1557976,24.7672272 C38.8231081,25.4864581 42.619981,24.5277336 45.5056044,22.1538536 C48.3914153,19.7793549 50.0641019,16.2380444 50.0641019,12.5006089 C50.0641019,8.76373597 48.3919778,5.22261291 45.5061669,2.84811421 C42.620356,0.473615514 38.8234831,-0.485821461 35.1563601,0.234178145 C31.4890496,0.953409001 28.3360513,3.27673898 26.5621148,6.56529968 C26.0567463,6.39171602 25.5315966,6.28624358 24.9991344,6.2503561 L19.1581376,6.2503561 C13.3272658,6.22032612 7.79751879,8.83804218 4.1251458,13.3672897 C0.60802273,17.6775373 -0.759414021,23.3516592 0.408147839,28.7906563 C6.26526963,56.2181412 27.1118832,110.924986 56.2493673,117.980607 L56.2493673,168.749955 C55.9410237,176.699575 58.7916784,184.448759 64.1778004,190.304943 C69.56411,196.160002 77.0492934,199.645438 84.997789,200 L96.2528454,200 C104.201154,199.645513 111.685774,196.160002 117.072834,190.304943 C122.459706,184.449321 125.309704,176.700138 125.001267,168.749955 L125.001267,149.999965 C124.962449,149.633759 124.889206,149.27194 124.78373,148.918915 C128.483103,147.67161 131.699288,145.296417 133.980787,142.127107 C136.261536,138.957983 137.49266,135.154361 137.501473,131.249863 L137.49941,131.249863 Z M62.4994513,106.248626 C51.5659573,106.248626 40.4644634,93.4928208 31.3163434,76.6817675 C41.4516504,79.6290784 51.9450821,81.1656401 62.4994513,81.2490775 C73.0536331,81.165582 83.5463148,79.6289659 93.6825593,76.6817675 C84.5338768,93.4930083 73.4325703,106.248626 62.4994513,106.248626 L62.4994513,106.248626 Z" id="Shape"></path>
        </g>
        <g id="noun-microchip-3968698-FF0037" transform="translate(0.000000, 100.000000)" fill="#FF0036" fill-rule="nonzero">
            <path d="M96.6317417,45.1578807 C98.5266611,45.1578807 100,43.6841032 100,41.7896224 C100,39.894703 98.5262225,38.4210133 96.6317417,38.4210133 L86.8422313,38.4210133 L86.8422313,28.8420299 L96.6317417,28.8420299 C98.5266611,28.8420299 100,27.3682524 100,25.4737716 C100,23.5788522 98.5262225,22.1055134 96.6317417,22.1055134 L86.8422313,22.1051707 L86.8422313,16.526027 C86.8422313,14.6311076 85.3684538,13.1577687 83.473973,13.1577687 L77.8948293,13.1577687 L77.8948293,3.36825827 C77.8948293,1.47333887 76.4210518,0 74.526571,0 C72.6316516,0 71.1583127,1.47377747 71.1583127,3.36825827 L71.1579701,13.1577687 L61.5789867,13.1577687 L61.5789867,3.36825827 C61.5789867,1.47333887 60.1052093,0 58.2107285,0 C56.3158091,0 54.8424702,1.47377747 54.8424702,3.36825827 L54.8421276,13.1577687 L45.2631442,13.1577687 L45.2631442,3.36825827 C45.2631442,1.47333887 43.7893668,0 41.894886,0 C39.9999666,0 38.4210133,1.47377747 38.4210133,3.36825827 L38.4210133,13.1577687 L28.8420299,13.1577687 L28.8420299,3.36825827 C28.8420299,1.47333887 27.3682524,0 25.4737716,0 C23.5788522,0 22.1055134,1.47377747 22.1055134,3.36825827 L22.1051707,13.1577687 L16.526027,13.1577687 C14.6311076,13.1577687 13.1577687,14.6315462 13.1577687,16.526027 L13.1577687,22.1051707 L3.36825827,22.1051707 C1.47333887,22.1051707 0,23.5789482 0,25.473429 C0,27.3683484 1.47377747,28.8416873 3.36825827,28.8416873 L13.1577687,28.8420299 L13.1577687,38.4210133 L3.36825827,38.4210133 C1.47333887,38.4210133 0,39.8947907 0,41.7892715 C0,43.6841909 1.47377747,45.1575298 3.36825827,45.1575298 L13.1577687,45.1578724 L13.1577687,54.7368558 L3.36825827,54.7368558 C1.47333887,54.7368558 0,56.2106332 0,58.105114 C0,60.0000334 1.47377747,61.5789867 3.36825827,61.5789867 L13.1577687,61.5789867 L13.1577687,71.1579701 L3.36825827,71.1579701 C1.47333887,71.1579701 0,72.6317476 0,74.5262284 C0,76.4211478 1.47377747,77.8944866 3.36825827,77.8944866 L13.1577687,77.8948293 L13.1577687,83.473973 C13.1577687,85.3688924 14.6315462,86.8422313 16.526027,86.8422313 L22.1051707,86.8422313 L22.1051707,96.6317417 C22.1051707,98.5266611 23.5789482,100 25.473429,100 C27.3683484,100 28.8416873,98.5262225 28.8416873,96.6317417 L28.8420299,86.8422313 L38.4210133,86.8422313 L38.4210133,96.6317417 C38.4210133,98.5266611 39.8947907,100 41.7892715,100 C43.6841909,100 45.1575298,98.5262225 45.1575298,96.6317417 L45.1578724,86.8422313 L54.7368558,86.8422313 L54.7368558,96.6317417 C54.7368558,98.5266611 56.2106332,100 58.105114,100 C60.0000334,100 61.4733723,98.5262225 61.4733723,96.6317417 L61.4737149,86.8422313 L71.0526983,86.8422313 L71.0526983,96.6317417 C71.0526983,98.5266611 72.5264758,100 74.4209566,100 C76.315876,100 77.7892148,98.5262225 77.7892148,96.6317417 L77.7895575,86.8422313 L83.3687012,86.8422313 C85.2636206,86.8422313 86.7369595,85.3684538 86.7369595,83.473973 L86.7369595,77.8948293 L96.5264699,77.8948293 C98.4213893,77.8948293 99.8947282,76.4210518 99.8947282,74.526571 C99.8947282,72.6316516 98.4209507,71.1583127 96.5264699,71.1583127 L86.842223,71.1579701 L86.842223,61.5789867 L96.6317335,61.5789867 C98.5266529,61.5789867 100,60.1052093 100,58.2107285 C100,56.3158091 98.5262143,54.8424702 96.6317335,54.8424702 L86.842223,54.8421276 L86.842223,45.2631442 L96.6317335,45.2631442 L96.6317417,45.1578807 Z M80.1053639,80.1053804 L19.8946114,80.1053804 L19.8946114,19.8946279 L80.1053639,19.8946279 L80.1053639,80.1053804 Z" id="Shape"></path>
            <path d="M30.7367574,72.632019 L69.1579543,72.632019 C71.0528737,72.632019 72.5265552,71.1578906 72.5265552,69.2634098 L72.5265552,30.7369493 C72.5265552,28.8420299 71.0527778,27.368691 69.158297,27.368691 L30.7371,27.368691 C28.8421806,27.368691 27.3688417,28.8424685 27.3688417,30.7369493 L27.3688417,69.1581463 C27.3688417,71.0530657 28.947795,72.632019 30.7371,72.632019 L30.7367574,72.632019 Z" id="Path"></path>
        </g>
    </g>
</svg>