<?xml version="1.0" encoding="UTF-8"?>
<svg width="1200pt" height="1200pt" version="1.1" viewBox="0 0 1200 1200" xmlns="http://www.w3.org/2000/svg">
 <g fill="#ff0036">
  <path d="m968.4 620.4-388.8-388.8c-13.199-13.199-13.199-36 0-49.199 13.199-13.199 36-13.199 49.199 0l390 390c13.199 13.199 13.199 36 0 49.199-14.402 13.199-36 13.199-50.402-1.2031z"/>
  <path d="m1071.6 566.4-438-438 60-60c12-12 31.199-12 42 0l396 396c12 12 12 31.199 0 42z"/>
  <path d="m528 232.8-178.8 180c-12 12-12 31.199 0 42l78 78c46.801-9.6016 97.199-1.1992 139.2 21.602l-342 313.2c-36-7.1992-75.602 1.1992-106.8 24l43.199 43.199c30-15.602 67.199-12 92.398 13.199 25.199 25.199 28.801 62.398 13.199 92.398l43.199 43.199c22.801-31.199 30-69.602 24-106.8l313.2-342c24 43.199 31.199 92.398 21.602 139.2l78 78c12 12 31.199 12 42 0l178.8-180zm177.6 338.4c-21.602 21.602-55.199 21.602-76.801 0-21.602-21.602-21.602-55.199 0-76.801 21.602-21.602 55.199-21.602 76.801 0 20.398 21.602 20.398 55.203 0 76.801z"/>
  <path d="m234 1070.4 43.199 43.199c-54 38.398-128.4 33.602-177.6-14.398-48-48-52.801-123.6-14.398-177.6l43.199 43.199c-15.602 30-12 67.199 13.199 92.398 25.203 25.203 63.602 30.004 92.402 13.203z"/>
 </g>
</svg>
