<?xml version="1.0" encoding="UTF-8"?>
<svg width="218px" height="200px" viewBox="0 0 218 200" version="1.1" xmlns="http://www.w3.org/2000/svg" xmlns:xlink="http://www.w3.org/1999/xlink">
    <title>ic_Maintenance-Red-1</title>
    <g id="ic_Maintenance-Red-1" stroke="none" stroke-width="1" fill="none" fill-rule="evenodd">
        <g id="noun-oil-1572956-FF0037" transform="translate(0.000000, 36.000000)" fill="#FF0036" fill-rule="nonzero">
            <path d="M204.9851,71.4175636 C209.405149,77.5584422 218,90.7472197 218,100.429674 C218,109.463761 211.029741,116.784804 202.428834,116.784804 C193.827928,116.784804 186.857668,109.463761 186.857668,100.429674 C186.857668,90.5700977 195.43219,77.4946436 199.854834,71.4045876 C201.152431,69.6187046 203.697884,69.627139 204.985317,71.4172593 L204.9851,71.4175636 Z" id="Path"></path>
            <path d="M198.735007,32.3058224 C196.438044,30.8891058 193.568192,30.761552 191.159851,31.9628459 L140.140494,57.4736061 L140.140494,38.9279149 C140.140494,34.6278942 136.654931,31.1423319 132.354911,31.1423319 L93.4269958,31.1423319 L93.4269958,15.571166 L116.783745,15.571166 C121.083765,15.571166 124.569328,12.0856037 124.569328,7.78558298 C124.569328,3.48556225 121.083765,0 116.783745,0 L54.4990809,0 C50.1990601,0 46.7134979,3.48556225 46.7134979,7.78558298 C46.7134979,12.0856037 50.1990601,15.571166 54.4990809,15.571166 L77.8558298,15.571166 L77.8558298,31.1423319 L23.3567489,31.1423319 C10.4770158,31.1423319 0,41.6193477 0,54.4990809 L0,70.0702468 C0,82.94998 10.4770158,93.4269958 23.3567489,93.4269958 L31.1423319,93.4269958 L31.1423319,101.212579 C31.1423319,114.092312 41.6193477,124.569328 54.4990809,124.569328 L125.363025,124.569328 C132.030079,124.569328 138.393928,121.70964 142.820681,116.728813 L200.459947,51.8857202 C201.724606,50.4614127 202.42492,48.6213983 202.42492,46.7139304 L202.42492,38.9283474 C202.42492,36.2293453 201.025937,33.7251991 198.734986,32.3051952 L198.735007,32.3058224 Z M23.3561001,77.8558082 C19.0636487,77.8558082 15.5705172,74.3626766 15.5705172,70.0702252 L15.5705172,54.4990592 C15.5705172,50.2066078 19.0636487,46.7134763 23.3561001,46.7134763 L31.1416831,46.7134763 L31.1416831,77.8558082 L23.3561001,77.8558082 Z" id="Shape"></path>
        </g>
    </g>
</svg>