<?xml version="1.0" encoding="UTF-8"?>
<svg width="218px" height="200px" viewBox="0 0 218 200" version="1.1" xmlns="http://www.w3.org/2000/svg" xmlns:xlink="http://www.w3.org/1999/xlink">
    <title>ic_Performance-Red</title>
    <g id="ic_Performance-Red" stroke="none" stroke-width="1" fill="none" fill-rule="evenodd">
        <g id="noun-repeat-3556877-FF0037" transform="translate(57.082997, 59.155746)"></g>
        <g id="noun-performance-831861-FF0037" transform="translate(14.000000, 0.000000)" fill="#FF0036" fill-rule="nonzero">
            <path d="M189.078592,100.483044 C190.767876,102.196884 191.527761,104.620883 191.119282,106.992335 L186.038135,138.010822 C185.782385,139.542003 185.054998,140.954858 183.957651,142.052409 C182.860253,143.15047 181.447262,143.877126 179.916065,144.132892 C179.522143,144.166106 179.126233,144.166106 178.732311,144.132892 C176.65642,144.134221 174.663516,143.32114 173.181465,141.867726 L167.345091,136.031353 L128.286286,175.171787 C126.448814,177.009938 123.957132,178.042187 121.358483,178.042187 C118.759155,178.042187 116.267302,177.009887 114.430001,175.171787 L94.6149014,155.356687 L52.7807573,197.12961 C50.3055704,199.605478 46.6978006,200.571914 43.3167175,199.665848 C39.9354643,198.759765 37.2949815,196.118619 36.3889152,192.737365 C35.4828319,189.356792 36.4493655,185.749023 38.9244725,183.274006 L87.6357417,134.583144 C89.4725327,132.744992 91.9648954,131.712063 94.563544,131.712063 C97.1621926,131.712063 99.6547253,132.745026 101.492027,134.583144 L121.307126,154.398243 L153.509213,122.196155 L147.61162,116.339205 C146.01733,114.796733 145.175036,112.635863 145.3053,110.421034 C145.420886,108.739064 146.099791,107.145387 147.233072,105.897165 C148.366352,104.64964 149.886819,103.819912 151.550321,103.544249 L182.568809,98.4219474 C182.973358,98.3528616 183.383231,98.3196206 183.793086,98.3196206 C185.772046,98.3143334 187.671928,99.0922189 189.078814,100.483289 L189.078592,100.483044 Z M39.3123566,158.295791 L46.6586704,151.031105 L53.7400346,143.94974 C55.3137297,142.431178 56.2696399,140.383805 56.4243922,138.202307 C56.5785068,136.02081 55.9208689,133.859209 54.5763774,132.133975 C53.0358945,130.258071 50.774742,129.120046 48.349382,128.999816 C45.9247022,128.878915 43.5619234,129.787658 41.8426421,131.501532 L34.4145307,138.786795 C25.8691415,127.990184 20.5116501,115.019559 18.9459307,101.340134 L29.8840289,101.340134 C32.9610492,101.340134 35.8035603,99.6986881 37.3419004,97.0342783 C38.8802405,94.3698684 38.8803936,91.0868574 37.3419004,88.4223966 C35.8034072,85.7579357 32.9608792,84.1165408 29.8840289,84.1165408 L19.0481353,84.1165408 C20.5826321,70.4468091 25.9048535,57.477034 34.4143606,46.6698801 L41.7606744,54.0161939 C43.4797856,55.7300333 45.8434148,56.6388206 48.2680945,56.5185899 C50.6927743,56.3976893 52.9540289,55.2597733 54.4944097,53.3837501 C55.8329492,51.6598772 56.4873135,49.503038 56.3330713,47.326132 C56.1789567,45.149226 55.2263711,43.1059851 53.6580669,41.5887322 L46.6585003,34.507368 C57.4544304,25.9612985 70.4240355,20.6031269 84.105161,19.038768 L84.105161,29.42622 C84.105161,32.5025601 85.746607,35.3457514 88.4110168,36.8840915 C91.0754777,38.4219215 94.3584377,38.4219215 97.0228985,36.8840915 C99.6873594,35.3455984 101.328754,32.5023901 101.328754,29.42622 L101.328754,19.038768 L104.18589,19.4267032 C119.614697,21.9702532 133.835415,29.3524491 144.79562,40.5070304 L145.122454,40.8338639 C154.888176,50.4002783 161.780096,62.5093924 165.019181,75.7908829 L165.121481,76.2399367 C165.623678,78.5603713 166.994154,80.600381 168.951686,81.9434951 C170.908707,83.286014 173.305498,83.8301129 175.651101,83.4640472 C178.212507,82.978448 180.461857,81.4631507 181.873505,79.2717898 C183.285781,77.0809391 183.736144,74.4059346 183.120366,71.8729282 C178.794444,53.1495979 168.761051,36.2322782 154.404457,23.4592596 C140.048544,10.6857309 122.079928,2.68673643 102.980771,0.566119449 C83.8816137,-1.55364724 64.5970936,2.31124948 47.7886106,11.626489 C30.9814882,20.9417284 17.4826642,35.2474752 9.15664919,52.5661306 C0.831144343,69.884786 -1.9089921,89.3631717 1.31410763,108.305876 C4.53720736,127.250281 13.5641994,144.72539 27.1492425,158.316385 C28.7661151,159.923955 30.954279,160.824053 33.23475,160.820154 C35.5145408,160.81682 37.7001197,159.908735 39.3115846,158.295808 L39.3123566,158.295791 Z M135.571702,50.1392231 C134.145481,48.6963873 132.232963,47.8368146 130.206898,47.7271276 C128.180833,47.6175204 126.186569,48.2665329 124.612857,49.5472529 L95.6350593,72.7498977 C90.1573373,72.0032433 84.6119324,73.5291012 80.2873702,76.9741259 C75.9634883,80.4184705 73.2359362,85.4815923 72.7390281,90.987884 C72.2414739,96.4941757 74.0184387,101.964585 77.6560706,106.127593 C81.2937025,110.2906 86.4757625,112.785004 91.9987198,113.031587 C97.5221873,113.278034 102.905697,111.254656 106.899328,107.431594 C110.892958,103.608021 113.148941,98.3182124 113.144349,92.789303 C113.13837,91.8745808 113.070614,90.9605047 112.940416,90.0551186 L136.163468,61.2405764 C137.459493,59.6602321 138.115218,57.6520232 138.00213,55.6113332 C137.888536,53.5713235 137.01367,51.647463 135.550921,50.2206806 L135.571702,50.1392231 Z" id="Shape"></path>
        </g>
    </g>
</svg>