<?xml version="1.0" encoding="UTF-8"?>
<svg width="1200pt" height="1200pt" version="1.1" viewBox="0 0 1200 1200" xmlns="http://www.w3.org/2000/svg">
 <g fill="#ff0036">
  <path d="m411.09 645.47c-25.547 0-46.406 20.859-46.406 46.406s20.859 46.406 46.406 46.406 46.406-20.859 46.406-46.406-20.859-46.406-46.406-46.406z"/>
  <path d="m773.44 182.11c0-16.641-13.594-30-30.234-29.766h-53.906c-8.9062 0-16.641-6.3281-18.281-15-7.2656-34.219-37.266-58.594-72.188-58.594s-63.984 23.672-72.188 59.062c-1.875 8.4375-9.6094 14.531-18.281 14.531h-52.5c-15.938 0-29.062 12.891-29.062 28.828v0.9375 96.797h346.88v-96.797z"/>
  <path d="m353.91 1021.9h164.06v-157.03h-164.06zm32.109-87.891c6.5625-8.2031 18.281-9.375 26.25-3.0469l13.594 10.781 32.109-36.797c6.7969-7.7344 18.75-8.6719 26.484-1.875s8.6719 18.75 1.875 26.484l-43.828 50.156c-6.5625 7.5-18.047 8.6719-25.781 2.3438l-27.656-22.031c-7.9688-6.0938-9.375-17.812-3.0469-26.016z"/>
  <path d="m780.94 645.47c-25.547 0-46.406 20.859-46.406 46.406s20.859 46.406 46.406 46.406 46.406-20.859 46.406-46.406c-0.23438-25.547-20.859-46.406-46.406-46.406z"/>
  <path d="m925.55 236.72h-114.61v61.641c0 10.078-8.4375 18.047-18.516 18.047h-0.46875-385.31c-9.375 0.23438-17.344-7.2656-17.578-16.641v-1.1719-61.875h-114.61c-30.234 0-54.141 25.547-54.141 55.547v774.38c0 29.531 23.906 53.438 53.203 53.672h0.9375 650.86c29.531 0.46875 53.906-23.203 54.141-52.734v-0.9375-774.38c0.23438-30-23.906-55.547-53.906-55.547zm-370.08 803.91c0 10.312-8.4375 18.75-18.75 18.75h-201.56c-10.312 0-18.75-8.4375-18.75-18.75v-194.53c0-10.312 8.4375-18.75 18.75-18.75h201.56c10.312 0 18.75 8.4375 18.75 18.75zm308.91-30.469h-243.28c-10.312 0-18.75-8.4375-18.75-18.75s8.4375-18.75 18.75-18.75h243.52c10.312 0 18.75 8.4375 18.75 18.75s-8.4375 18.75-18.984 18.75zm-262.03-117.19c0-10.312 8.4375-18.75 18.75-18.75h145.55c10.312 0 18.75 8.4375 18.75 18.75s-8.4375 18.75-18.75 18.75h-145.55c-10.547 0-18.75-8.4375-18.75-18.75zm339.84-243.75c0 37.031-30.234 67.969-67.266 67.969h-13.828c-10.547 32.812-42.422 59.531-80.391 59.531s-69.609-26.719-80.156-59.531h-209.06c-10.547 32.812-42.422 59.531-80.391 59.531s-69.844-26.719-80.156-59.531h-5.8594c-37.031 0-67.266-30.938-67.266-67.969v-40.781c0-30.234 20.391-56.484 49.453-64.453l105.7-28.594 62.812-82.266c15.938-20.391 40.312-32.344 66.094-32.109h186.33c28.594-0.23438 55.312 14.297 70.547 38.438l48.984 77.578 55.078 25.078c23.906 10.781 39.375 34.688 39.375 60.938z"/>
  <path d="m887.34 575.86-60.234-27.188c-3.2812-1.4062-6.0938-3.9844-8.2031-7.0312l-51.797-82.5c-8.4375-13.125-22.969-21.094-38.672-20.859h-186.33c-14.062-0.23438-27.656 6.3281-36.328 17.344l-66.797 87.188c-2.5781 3.2812-6.0938 5.625-10.078 6.7969l-111.8 30.469c-12.891 3.5156-21.797 15.234-21.797 28.359v40.781c0 16.406 13.125 30 29.766 30.469h3.2812c7.2656-45.703 50.156-77.109 95.859-69.844 35.859 5.625 64.219 33.75 69.844 69.844h203.91c7.2656-45.703 50.156-77.109 95.859-69.844 35.859 5.625 64.219 33.75 69.844 69.844h11.25c16.406-0.46875 29.766-13.828 29.766-30.469v-46.641c0-11.484-6.7969-21.797-17.344-26.719z"/>
 </g>
</svg>
