<?xml version="1.0" encoding="UTF-8"?>
<svg width="1200pt" height="1200pt" version="1.1" viewBox="0 0 1200 1200" xmlns="http://www.w3.org/2000/svg">
 <g fill="#ff0036" fill-rule="evenodd">
  <path d="m1149.7 794.41-234.64-93.855 26.816 73.742c0 80.445-157.54 144.13-341.9 144.13-184.36 0-338.55-63.688-341.9-144.13l26.816-73.742-234.64 93.855c-63.688 26.816-67.039 77.094-6.7031 110.61l442.46 234.64c63.688 33.52 164.25 33.52 227.93 0l442.46-234.64c60.336-33.52 60.336-83.801-6.7031-110.61z"/>
  <path d="m888.27 616.76c-16.762 164.25-556.43 164.25-576.54 0 26.816-73.742 50.281-147.48 77.094-217.88 43.574 124.02 378.77 130.73 422.35 0 26.816 70.391 53.633 144.13 77.094 217.88z"/>
  <path d="m439.11 258.1c20.113-60.336 40.223-120.67 63.688-181 20.113-56.984 174.3-56.984 194.41 0 23.465 60.336 43.574 120.67 67.039 181-50.281 83.801-281.56 83.801-325.14 0z"/>
 </g>
</svg>
