<?xml version="1.0" encoding="UTF-8"?>
<svg width="1200pt" height="1200pt" version="1.1" viewBox="0 0 1200 1200" xmlns="http://www.w3.org/2000/svg">
 <g fill="#ff0036">
  <path d="m633.6 495.6c0 18.555-15.043 33.598-33.602 33.598s-33.602-15.043-33.602-33.598c0-18.559 15.043-33.602 33.602-33.602s33.602 15.043 33.602 33.602"/>
  <path d="m532.8 578.4c6-18-3.6016-36-21.602-42s-36 3.6016-42 21.602 3.6016 36 21.602 42c18 4.8008 37.199-4.8008 42-21.602z"/>
  <path d="m512.4 663.6c-10.801 14.398-7.1992 36 7.1992 46.801 14.398 10.801 36 7.1992 46.801-7.1992 10.801-14.398 7.1992-36-7.1992-46.801-15.598-10.801-36-7.2031-46.801 7.1992z"/>
  <path d="m634.8 703.2c10.801 14.398 31.199 18 46.801 7.1992 14.398-10.801 18-31.199 7.1992-46.801-10.801-14.398-31.199-18-46.801-7.1992-15.602 10.801-18 31.203-7.1992 46.801z"/>
  <path d="m709.2 598.8c18-6 27.602-24 21.602-42s-24-27.602-42-21.602-27.602 24-21.602 42 24 27.602 42 21.602z"/>
  <path d="m409.2 597.6-136.8-51.602c-2.3984 18-4.8008 36-4.8008 54 0 92.398 38.398 176.4 99.602 236.4l80.398-122.4c26.402-42 8.4023-98.398-38.398-116.4z"/>
  <path d="m649.2 272.4 7.1992 146.4c2.3984 50.398 50.398 85.199 98.398 72l141.6-38.398c-46.797-94.797-138-164.4-247.2-180z"/>
  <path d="m543.6 417.6 7.1992-146.4c-108 16.801-199.2 85.199-247.2 180l140.4 38.398c49.199 13.199 97.199-21.602 99.602-72z"/>
  <path d="m600 30c-314.4 0-570 255.6-570 570s255.6 570 570 570 570-255.6 570-570-255.6-570-570-570zm0 961.2c-216 0-391.2-175.2-391.2-391.2s175.2-391.2 391.2-391.2 391.2 175.2 391.2 391.2-175.2 391.2-391.2 391.2z"/>
  <path d="m752.4 714 80.398 122.4c61.199-60 99.602-144 99.602-236.4 0-18-2.3984-36-4.8008-54l-136.8 51.602c-46.797 18-64.797 74.398-38.398 116.4z"/>
  <path d="m538.8 781.2-91.199 114c45.602 24 97.199 37.199 152.4 37.199s106.8-13.199 152.4-37.199l-91.199-114c-31.199-39.598-91.199-39.598-122.4 0z"/>
 </g>
</svg>
